<svg xmlns="http://www.w3.org/2000/svg" xmlns:xlink="http://www.w3.org/1999/xlink" viewBox="0 0 116 24"><path d="M 43.663 20.477 C 41.749 20.467 40.572 19.584 39.728 18.56 L 39.701 24.012 L 36.111 23.994 L 36.193 7.499 L 39.783 7.517 L 39.774 9.342 C 40.654 8.161 41.863 7.29 43.728 7.3 C 46.681 7.314 49.479 9.652 49.459 13.894 L 49.459 13.94 C 49.436 18.184 46.662 20.492 43.663 20.477 Z M 45.868 13.876 C 45.879 11.766 44.469 10.361 42.791 10.352 C 41.114 10.344 39.714 11.735 39.703 13.844 L 39.703 13.891 C 39.692 16.001 41.08 17.406 42.756 17.414 C 44.433 17.423 45.857 16.055 45.868 13.922 Z M 62.678 15.24 L 53.868 15.196 C 54.214 16.832 55.344 17.692 56.95 17.7 C 58.154 17.706 59.031 17.332 60.027 16.412 L 62.073 18.247 C 60.884 19.711 59.179 20.603 56.889 20.591 C 53.086 20.572 50.289 17.879 50.308 13.992 L 50.308 13.944 C 50.326 10.318 52.915 7.344 56.601 7.363 C 60.828 7.385 62.749 10.688 62.731 14.291 L 62.731 14.339 C 62.729 14.695 62.703 14.908 62.678 15.24 Z M 56.586 10.255 C 55.099 10.248 54.125 11.309 53.834 12.943 L 59.243 12.971 C 59.037 11.358 58.098 10.264 56.586 10.255 Z M 71.674 11.208 C 69.288 11.196 67.817 12.635 67.801 15.668 L 67.777 20.362 L 64.187 20.344 L 64.251 7.64 L 67.841 7.658 L 67.828 10.218 C 68.569 8.468 69.755 7.336 71.881 7.441 L 71.861 11.209 Z M 77.319 20.646 C 75.548 20.638 73.567 20.034 71.896 18.698 L 73.444 16.336 C 74.808 17.338 76.247 17.867 77.428 17.873 C 78.467 17.878 78.942 17.501 78.945 16.932 L 78.945 16.885 C 78.948 16.103 77.721 15.836 76.33 15.402 C 74.562 14.872 72.559 14.032 72.571 11.567 L 72.571 11.52 C 72.584 8.936 74.669 7.501 77.22 7.514 C 78.826 7.523 80.571 8.076 81.937 9.007 L 80.554 11.489 C 79.306 10.747 78.056 10.291 77.135 10.286 C 76.261 10.282 75.81 10.658 75.808 11.156 L 75.808 11.204 C 75.804 11.915 77.007 12.253 78.374 12.734 C 80.143 13.336 82.194 14.2 82.182 16.522 L 82.182 16.568 C 82.167 19.391 80.059 20.66 77.319 20.646 Z M 83.697 6.34 L 83.713 3.14 L 87.492 3.16 L 87.476 6.359 Z M 83.721 20.442 L 83.784 7.739 L 87.374 7.757 L 87.311 20.46 Z M 98.649 20.518 L 98.659 18.692 C 97.778 19.873 96.569 20.743 94.704 20.735 C 91.751 20.72 88.953 18.383 88.973 14.141 L 88.973 14.094 C 88.995 9.852 91.769 7.543 94.77 7.558 C 96.683 7.567 97.86 8.45 98.705 9.474 L 98.736 3.217 L 102.326 3.235 L 102.239 20.537 Z M 98.728 14.142 C 98.739 12.032 97.352 10.627 95.675 10.619 C 93.998 10.61 92.574 11.978 92.563 14.111 L 92.563 14.158 C 92.552 16.267 93.962 17.672 95.64 17.681 C 97.317 17.689 98.717 16.298 98.728 14.189 Z M 116.057 15.509 L 107.247 15.464 C 107.593 17.101 108.723 17.96 110.329 17.969 C 111.533 17.975 112.41 17.6 113.406 16.681 L 115.452 18.516 C 114.264 19.98 112.559 20.872 110.268 20.86 C 106.465 20.84 103.668 18.148 103.687 14.261 L 103.687 14.213 C 103.705 10.586 106.295 7.613 109.98 7.632 C 114.207 7.654 116.128 10.957 116.11 14.56 L 116.11 14.608 C 116.108 14.964 116.083 15.178 116.057 15.509 Z M 109.966 10.525 C 108.478 10.518 107.503 11.579 107.213 13.213 L 112.622 13.241 C 112.416 11.628 111.477 10.532 109.966 10.525 Z M 30.571 7.47 L 30.536 14.556 C 30.527 16.262 29.648 17.135 28.279 17.128 C 26.908 17.12 26.111 16.24 26.119 14.533 L 26.138 10.813 C 25.613 10.946 25.07 11.017 24.518 11.017 C 23.845 11.017 23.181 10.913 22.548 10.715 L 22.523 15.652 C 22.509 18.566 24.083 20.376 26.798 20.389 C 28.617 20.399 29.685 19.432 30.516 18.37 L 30.507 20.171 L 34.097 20.189 L 34.16 7.486 Z" fill="rgb(255, 255, 255)"></path><path d="M 28.156 0.282 L 27.839 0.002 L 22.102 0.002 L 25.634 3.118 C 25.97 3.413 26.175 3.831 26.203 4.279 C 26.233 4.727 26.083 5.169 25.787 5.506 C 25.466 5.871 25.004 6.08 24.519 6.079 C 24.111 6.079 23.717 5.931 23.41 5.662 L 18.517 1.346 C 17.522 0.479 16.249 0.001 14.931 0.001 C 13.356 0 11.857 0.679 10.817 1.865 C 8.835 4.129 9.048 7.597 11.293 9.599 L 16.18 13.91 C 16.517 14.206 16.722 14.624 16.749 15.072 C 16.78 15.52 16.63 15.962 16.333 16.298 C 16.013 16.664 15.551 16.873 15.066 16.872 C 14.656 16.872 14.261 16.723 13.953 16.452 L 9.065 12.139 C 7.986 11.198 6.549 10.711 5.123 10.804 C 3.664 10.897 2.33 11.556 1.363 12.659 C 0.404 13.752 -0.082 15.184 0.013 16.638 C 0.106 18.091 0.756 19.423 1.84 20.39 L 2.153 20.666 L 7.889 20.666 L 4.363 17.556 C 4.025 17.261 3.82 16.842 3.793 16.393 C 3.763 15.945 3.913 15.503 4.209 15.167 C 4.503 14.828 4.92 14.623 5.367 14.596 C 5.822 14.567 6.254 14.718 6.59 15.013 L 11.479 19.326 C 12.414 20.143 13.615 20.618 14.865 20.666 L 15.287 20.666 C 16.783 20.605 18.19 19.934 19.181 18.808 C 21.163 16.546 20.949 13.078 18.705 11.076 L 13.815 6.763 C 13.478 6.467 13.273 6.049 13.246 5.6 C 13.215 5.153 13.365 4.711 13.662 4.375 C 14.277 3.674 15.341 3.605 16.041 4.22 L 20.93 8.533 L 20.931 8.533 C 21.925 9.4 23.199 9.877 24.518 9.877 C 26.095 9.877 27.595 9.198 28.633 8.014 C 29.51 7.012 29.993 5.724 29.993 4.391 C 29.992 2.821 29.324 1.326 28.156 0.282 Z" fill="rgb(255, 255, 255)"></path></svg>