<svg xmlns="http://www.w3.org/2000/svg" xmlns:xlink="http://www.w3.org/1999/xlink" viewBox="0 0 85 26"><path d="M 41.534 20.491 L 28.629 20.491 L 28.629 1.468 L 31.875 1.468 L 31.875 17.555 L 41.534 17.555 Z" fill="rgb(255,255,255)"></path><path d="M 41.013 25.926 L 41.013 23.208 L 43.61 23.208 C 44.728 23.208 45.432 22.809 45.72 22.012 L 46.288 20.491 L 45.693 20.491 L 40.012 6.088 L 43.447 6.088 L 47.56 17.012 L 51.591 6.087 L 54.918 6.087 L 48.669 22.963 C 48.29 23.96 47.695 24.703 46.883 25.192 C 46.072 25.681 44.98 25.926 43.61 25.926 Z M 56.086 20.491 L 56.086 6.088 L 58.656 6.088 L 59.034 8.914 C 59.972 6.92 61.632 5.924 64.012 5.924 L 64.554 5.924 L 64.554 9.05 L 64.012 9.05 C 62.516 9.05 61.352 9.43 60.523 10.191 C 59.693 10.952 59.278 12.012 59.278 13.37 L 59.278 20.491 Z M 67.438 4.158 C 66.861 4.158 66.374 3.959 65.977 3.56 C 65.58 3.143 65.382 2.645 65.382 2.065 C 65.382 1.486 65.58 0.996 65.977 0.598 C 66.374 0.199 66.861 0 67.438 0 C 68.033 0 68.52 0.199 68.899 0.598 C 69.296 0.996 69.494 1.486 69.494 2.065 C 69.494 2.663 69.296 3.161 68.899 3.56 C 68.52 3.959 68.033 4.158 67.438 4.158 Z M 69.034 20.491 L 65.842 20.491 L 65.842 6.088 L 69.034 6.088 L 69.034 20.49 Z M 78.132 20.898 C 76.617 20.898 75.3 20.563 74.182 19.893 C 73.064 19.222 72.207 18.308 71.612 17.148 C 71.017 15.97 70.719 14.648 70.719 13.18 C 70.719 11.64 71.035 10.309 71.666 9.185 C 72.298 8.044 73.172 7.174 74.29 6.576 C 75.409 5.96 76.662 5.653 78.051 5.653 C 79.349 5.653 80.495 5.906 81.487 6.413 C 82.497 6.903 83.29 7.6 83.868 8.506 C 84.463 9.412 84.805 10.463 84.896 11.658 L 81.757 11.658 C 81.613 10.662 81.207 9.874 80.54 9.294 C 79.873 8.696 79.034 8.397 78.024 8.397 C 76.797 8.397 75.815 8.832 75.075 9.702 C 74.335 10.553 73.966 11.713 73.966 13.18 C 73.966 14.72 74.354 15.934 75.129 16.822 C 75.905 17.71 76.906 18.153 78.132 18.153 C 79.106 18.153 79.909 17.864 80.54 17.284 C 81.189 16.686 81.595 15.871 81.757 14.838 L 84.896 14.838 C 84.697 16.704 83.994 18.181 82.786 19.268 C 81.577 20.355 80.026 20.898 78.132 20.898 Z M 22.754 5.201 C 22.754 6.478 22.239 7.632 21.407 8.466 C 21.079 8.796 20.703 9.074 20.292 9.29 C 19.759 7.332 17.978 5.894 15.859 5.894 L 6.895 5.894 C 6.125 5.894 5.397 6.085 4.76 6.422 C 4.652 6.024 4.597 5.614 4.597 5.201 C 4.597 2.65 6.654 0.584 9.193 0.584 L 18.157 0.584 C 20.697 0.584 22.754 2.65 22.754 5.201 Z" fill="rgb(255,255,255)"></path><path d="M 20.455 10.511 C 20.455 11.788 19.94 12.942 19.108 13.776 C 18.781 14.106 18.405 14.384 17.994 14.6 C 17.46 12.642 15.679 11.204 13.56 11.204 L 4.597 11.204 C 3.827 11.204 3.098 11.395 2.461 11.732 C 2.353 11.334 2.298 10.924 2.299 10.511 C 2.298 8.794 3.246 7.219 4.76 6.422 C 5.293 8.38 7.074 9.818 9.193 9.818 L 18.157 9.818 C 18.927 9.818 19.655 9.627 20.292 9.29 C 20.398 9.678 20.455 10.089 20.455 10.511 Z" fill="rgb(255,255,255)"></path><path d="M 18.157 15.821 C 18.159 17.046 17.674 18.221 16.81 19.085 C 15.949 19.953 14.78 20.44 13.56 20.438 L 4.597 20.438 C 2.057 20.438 0 18.372 0 15.821 C -0.001 14.104 0.947 12.529 2.461 11.732 C 2.995 13.69 4.776 15.128 6.895 15.128 L 15.859 15.128 C 16.629 15.128 17.357 14.937 17.994 14.6 C 18.099 14.988 18.157 15.398 18.157 15.821 Z" fill="rgb(255,255,255)"></path></svg>