<svg xmlns="http://www.w3.org/2000/svg" xmlns:xlink="http://www.w3.org/1999/xlink" viewBox="0 0 167 27"><path d="M 0 0 L 32.202 6.046 L 28.09 7.786 L 30.147 12.827 L 32.202 11.946 L 30.848 11.227 L 35.285 11.065 L 35.872 11.872 L 37.744 11.946 L 39.143 12.985 L 37.12 13.342 L 33.89 14.958 L 31.101 21.716 L 24.554 21.384 L 17.918 23.268 L 2.923 26.978 L 25.156 16.207 L 24.886 15.504 L 19.12 14.84 L 16.076 12.481 L 21.688 11.794 L 13.673 10.626 L 10.017 7.786 L 21.134 7.208 L 6.676 5.199 Z M 150.568 5.98 L 158.13 5.98 C 159.602 5.98 160.72 6.329 161.482 7.028 C 162.244 7.727 162.625 8.718 162.625 10.002 L 162.625 10.135 C 162.625 11.864 162.009 12.975 160.777 13.471 C 161.463 13.725 162.009 14.163 162.415 14.786 C 162.822 15.409 163.025 16.165 163.025 17.055 L 163.025 17.207 C 163.025 18.707 162.638 19.837 161.863 20.6 C 161.088 21.35 159.914 21.725 158.339 21.725 L 150.568 21.725 Z M 158.053 19.113 C 158.714 19.113 159.196 18.973 159.501 18.694 C 159.806 18.414 159.958 17.951 159.958 17.302 L 159.958 16.73 C 159.958 16.095 159.799 15.638 159.482 15.358 C 159.177 15.066 158.701 14.92 158.053 14.92 L 153.539 14.92 L 153.539 19.113 Z M 157.863 12.308 C 158.422 12.308 158.847 12.188 159.139 11.946 C 159.431 11.692 159.577 11.26 159.577 10.65 L 159.577 10.173 C 159.577 9.589 159.438 9.182 159.158 8.953 C 158.879 8.712 158.447 8.591 157.863 8.591 L 153.539 8.591 L 153.539 12.308 Z M 143.234 21.915 C 141.062 21.915 139.488 21.452 138.51 20.524 C 137.532 19.584 137.043 18.078 137.043 16.006 L 137.043 5.98 L 140.034 5.98 L 140.034 16.33 C 140.034 17.41 140.288 18.179 140.796 18.637 C 141.304 19.094 142.116 19.323 143.234 19.323 C 144.351 19.323 145.157 19.094 145.653 18.637 C 146.161 18.179 146.415 17.411 146.415 16.33 L 146.415 5.98 L 149.405 5.98 L 149.405 16.006 C 149.405 17.404 149.189 18.535 148.757 19.399 C 148.326 20.263 147.659 20.899 146.757 21.305 C 145.856 21.712 144.681 21.915 143.234 21.915 Z M 126.059 5.98 L 129.031 5.98 L 129.031 19.113 L 136.44 19.113 L 136.44 21.725 L 126.059 21.725 Z M 118.334 21.915 C 116.873 21.915 115.622 21.623 114.581 21.038 C 113.553 20.441 112.772 19.621 112.238 18.579 C 111.718 17.525 111.458 16.324 111.458 14.977 L 111.458 12.689 C 111.458 11.355 111.718 10.167 112.238 9.125 C 112.772 8.083 113.559 7.269 114.6 6.685 C 115.642 6.088 116.892 5.789 118.353 5.789 C 119.686 5.789 120.835 6.043 121.8 6.551 C 122.765 7.047 123.508 7.733 124.029 8.61 C 124.562 9.487 124.807 10.084 124.943 11.241 L 124.943 12.499 L 121.988 12.499 L 121.877 11.241 C 121.813 10.427 121.476 9.747 120.867 9.201 C 120.257 8.655 119.419 8.382 118.353 8.382 C 117.083 8.382 116.124 8.756 115.477 9.506 C 114.829 10.243 114.505 11.19 114.505 12.346 L 114.505 15.358 C 114.505 16.527 114.823 17.481 115.457 18.217 C 116.105 18.954 117.07 19.323 118.353 19.323 C 119.432 19.323 120.27 19.05 120.867 18.503 C 121.476 17.944 121.813 17.258 121.877 16.445 L 121.988 15.187 L 124.943 15.187 L 124.943 16.082 C 124.867 17.214 124.562 18.217 124.029 19.094 C 123.508 19.971 122.759 20.664 121.781 21.172 C 120.816 21.668 119.667 21.915 118.334 21.915 Z M 104.014 21.725 C 103.861 21.547 103.785 21.077 103.785 20.314 L 103.785 17.722 C 103.785 17.061 103.601 16.584 103.233 16.292 C 102.877 15.987 102.344 15.835 101.633 15.835 L 97.595 15.835 L 97.595 21.725 L 94.623 21.725 L 94.623 5.98 L 101.69 5.98 C 103.404 5.98 104.68 6.361 105.518 7.124 C 106.369 7.873 106.794 9.036 106.794 10.612 L 106.794 10.688 C 106.794 11.781 106.604 12.639 106.223 13.261 C 105.842 13.871 105.271 14.291 104.509 14.519 C 105.258 14.736 105.823 15.136 106.204 15.72 C 106.598 16.305 106.794 17.023 106.794 17.874 L 106.794 20.314 C 106.794 21.039 106.871 21.509 107.023 21.725 Z M 101.633 13.319 C 102.356 13.319 102.89 13.16 103.233 12.842 C 103.576 12.524 103.747 11.997 103.747 11.26 L 103.747 10.421 C 103.747 9.735 103.569 9.246 103.214 8.953 C 102.871 8.648 102.318 8.496 101.556 8.496 L 97.595 8.496 L 97.595 13.318 L 101.633 13.318 Z M 86.719 21.915 C 85.297 21.915 84.071 21.617 83.043 21.019 C 82.027 20.422 81.253 19.603 80.719 18.561 C 80.186 17.506 79.919 16.311 79.919 14.977 L 79.919 12.69 C 79.919 11.355 80.186 10.167 80.719 9.125 C 81.253 8.083 82.027 7.27 83.043 6.685 C 84.071 6.088 85.297 5.79 86.719 5.79 C 88.141 5.79 89.36 6.088 90.376 6.685 C 91.405 7.27 92.179 8.083 92.7 9.125 C 93.233 10.167 93.5 11.355 93.5 12.69 L 93.5 14.977 C 93.5 16.311 93.233 17.506 92.7 18.561 C 92.167 19.603 91.392 20.423 90.376 21.02 C 89.36 21.617 88.141 21.916 86.719 21.916 Z M 82.947 15.358 C 82.947 16.514 83.259 17.468 83.881 18.217 C 84.516 18.954 85.462 19.323 86.719 19.323 C 87.976 19.323 88.916 18.954 89.538 18.217 C 90.16 17.468 90.471 16.514 90.471 15.358 L 90.471 12.327 C 90.471 11.196 90.154 10.256 89.519 9.506 C 88.897 8.756 87.963 8.382 86.719 8.382 C 85.462 8.382 84.516 8.756 83.881 9.506 C 83.259 10.243 82.947 11.183 82.947 12.327 Z M 69.586 5.98 L 72.557 5.98 L 72.557 19.113 L 79.967 19.113 L 79.967 21.725 L 69.586 21.725 Z M 59.53 5.98 L 63.587 5.98 L 68.52 21.725 L 65.378 21.725 L 64.616 19.113 L 58.501 19.113 L 57.739 21.725 L 54.616 21.725 Z M 63.873 16.521 L 61.701 9.067 L 61.568 8.667 L 61.416 9.067 L 59.244 16.521 L 63.873 16.521 Z M 43.215 5.98 L 46.357 5.98 L 50.033 18.637 L 50.186 19.056 L 50.338 18.637 L 53.995 5.98 L 57.119 5.98 L 52.205 21.725 L 48.148 21.725 Z M 164.413 8.11 L 164.413 6.87 L 165.041 6.87 C 165.098 6.871 165.155 6.886 165.205 6.913 C 165.265 6.941 165.315 6.985 165.357 7.044 C 165.399 7.102 165.42 7.177 165.42 7.266 C 165.42 7.357 165.399 7.434 165.355 7.498 C 165.314 7.558 165.259 7.607 165.195 7.641 C 165.134 7.673 165.076 7.69 165.021 7.69 L 164.568 7.69 L 164.568 7.488 L 164.937 7.488 C 164.974 7.488 165.013 7.469 165.056 7.433 C 165.1 7.396 165.122 7.34 165.122 7.266 C 165.122 7.19 165.1 7.139 165.056 7.112 C 165.023 7.088 164.984 7.074 164.944 7.071 L 164.685 7.071 L 164.685 8.11 L 164.413 8.11 Z M 165.162 7.525 L 165.471 8.11 L 165.172 8.11 L 164.87 7.525 Z M 164.883 8.849 C 164.704 8.85 164.526 8.815 164.361 8.745 C 164.201 8.677 164.056 8.579 163.933 8.456 C 163.81 8.333 163.712 8.188 163.644 8.028 C 163.574 7.862 163.539 7.684 163.54 7.505 C 163.54 7.319 163.575 7.145 163.644 6.982 C 163.781 6.659 164.038 6.402 164.361 6.265 C 164.526 6.195 164.704 6.16 164.883 6.161 C 165.069 6.161 165.243 6.196 165.405 6.265 C 165.728 6.402 165.985 6.659 166.122 6.982 C 166.191 7.145 166.226 7.319 166.226 7.505 C 166.227 7.685 166.192 7.862 166.122 8.028 C 165.985 8.351 165.728 8.608 165.405 8.745 C 165.24 8.815 165.063 8.85 164.883 8.849 Z M 164.883 8.527 C 165.064 8.528 165.242 8.481 165.397 8.388 C 165.549 8.299 165.676 8.172 165.766 8.019 C 165.858 7.864 165.906 7.686 165.904 7.505 C 165.904 7.317 165.858 7.145 165.766 6.991 C 165.676 6.838 165.549 6.711 165.397 6.621 C 165.242 6.529 165.064 6.482 164.883 6.484 C 164.695 6.484 164.524 6.53 164.37 6.621 C 164.217 6.711 164.09 6.838 164 6.991 C 163.908 7.146 163.86 7.324 163.863 7.505 C 163.863 7.693 163.908 7.865 164 8.019 C 164.09 8.172 164.217 8.299 164.37 8.388 C 164.524 8.481 164.695 8.527 164.883 8.527 Z" fill="rgb(255,255,255)"></path></svg>