<svg xmlns="http://www.w3.org/2000/svg" xmlns:xlink="http://www.w3.org/1999/xlink" viewBox="0 0 84 24"><path d="M 3.7 23.313 L 9.232 23.313 L 9.232 11.613 L 14.493 11.613 L 14.493 23.313 L 19.986 23.313 L 19.986 7.284 L 9.229 7.284 L 9.229 6.266 C 9.229 5.757 9.461 5.274 9.865 4.941 C 10.268 4.609 10.803 4.459 11.332 4.532 L 11.321 4.532 L 14.49 4.532 L 14.49 0.203 L 10.401 0.203 C 8.688 0.033 6.98 0.562 5.701 1.66 C 4.422 2.758 3.692 4.321 3.692 5.961 L 3.692 7.289 L 0.561 7.289 L 0.561 11.618 L 3.697 11.618 L 3.697 23.316 Z M 26.49 23.313 L 31.378 23.313 L 37.479 7.284 L 31.887 7.284 L 28.916 16.613 L 25.885 7.284 L 20.315 7.284 L 26.485 23.313 Z M 47.731 13.445 C 47.639 11.949 46.339 10.781 44.766 10.779 L 44.655 10.782 L 44.661 10.782 C 43.867 10.707 43.077 10.952 42.481 11.458 C 41.885 11.963 41.539 12.683 41.525 13.442 L 41.525 13.445 Z M 53.124 16.553 L 41.525 16.553 C 41.592 17.368 41.997 18.125 42.652 18.654 C 43.307 19.184 44.156 19.443 45.012 19.374 L 45.001 19.374 C 46.221 19.526 47.396 18.875 47.861 17.789 L 47.866 17.771 L 52.787 19.087 C 51.466 21.825 48.593 23.58 45.429 23.584 C 45.277 23.584 45.128 23.579 44.979 23.574 L 45.001 23.574 C 42.697 23.658 40.457 22.846 38.796 21.323 C 37.136 19.801 36.197 17.701 36.197 15.505 L 36.2 15.292 L 36.2 15.303 C 36.071 13.112 36.916 10.971 38.528 9.404 C 40.14 7.837 42.37 6.988 44.672 7.066 L 44.658 7.066 C 46.93 6.916 49.161 7.697 50.79 9.212 C 52.42 10.727 53.292 12.833 53.188 15 L 53.188 14.984 C 53.188 15.721 53.155 16.2 53.119 16.553 Z M 76.556 11.616 L 73.622 11.616 C 71.737 11.616 70.72 12.963 70.72 15.208 L 70.72 23.318 L 65.161 23.318 L 65.161 11.618 L 62.798 11.618 C 60.908 11.618 59.897 12.966 59.897 15.211 L 59.897 23.321 L 54.337 23.321 L 54.337 7.292 L 59.897 7.292 L 59.897 9.726 C 60.497 8.131 62.158 7.129 63.928 7.295 L 63.912 7.295 L 70.72 7.295 L 70.72 9.729 C 71.318 8.134 72.979 7.131 74.749 7.297 L 74.732 7.297 L 76.553 7.297 Z M 79.996 23.8 L 79.999 23.8 C 81.555 23.799 82.916 22.802 83.316 21.37 C 83.716 19.938 83.055 18.429 81.706 17.691 C 80.356 16.954 78.655 17.173 77.559 18.225 C 76.463 19.277 76.246 20.899 77.031 22.179 L 77.023 22.163 C 77.628 23.15 78.731 23.8 79.996 23.803 Z" fill="rgb(255, 255, 255)"></path></svg>